<svg id="圖層_1" data-name="圖層 1" xmlns="http://www.w3.org/2000/svg" viewBox="0 0 24 24"><defs><style>.cls-1{opacity:0;}.cls-2{fill:none;}.cls-3{opacity:0.6;}.cls-4{fill:#fff;}</style></defs><title>1</title><g class="cls-1"><rect class="cls-2" width="24" height="24"/></g><g class="cls-3"><path class="cls-4" d="M16,5.51A6.49,6.49,0,1,0,22.53,12,6.49,6.49,0,0,0,16,5.51ZM13.1,16l1-1L13,14l-1,1a5,5,0,0,1-.93-2.44h1.51V11H11.15a5,5,0,0,1,4.27-3.94V8.31h1.5V7.1a5,5,0,0,1,4,3.91H19.42v1.5H21A5,5,0,0,1,20,15l-1-1L18,15l1,1a4.9,4.9,0,0,1-5.88,0Z"/><rect class="cls-4" x="5" y="7.25" width="3.47" height="1.5"/><rect class="cls-4" x="2.98" y="11.01" width="5.49" height="1.5"/><rect class="cls-4" x="1.47" y="14.76" width="7" height="1.5"/><path class="cls-4" d="M16.69,11.75l-.52-2.24-.53,2.24s-.52,2.3-.52,2.33a1.06,1.06,0,0,0,2.09,0V14Z"/></g></svg>