<svg id="圖層_1" data-name="圖層 1" xmlns="http://www.w3.org/2000/svg" viewBox="0 0 24 24"><defs><style>.cls-1{opacity:0;}.cls-2{fill:#fff;}.cls-3{opacity:0.6;}</style></defs><title>1</title><g class="cls-1"><rect class="cls-2" width="24" height="24"/></g><g class="cls-3"><path class="cls-2" d="M10.23,13.81A1.81,1.81,0,1,0,8.42,12,1.81,1.81,0,0,0,10.23,13.81Z"/><path class="cls-2" d="M10.53,8.82a3.3,3.3,0,0,1,2,.95,3.18,3.18,0,0,1,.9,1.74l1.34-.24a4.55,4.55,0,0,0-1.28-2.46,4.64,4.64,0,0,0-2.86-1.34,4.5,4.5,0,0,0-1.59.13l.35,1.31A3.49,3.49,0,0,1,10.53,8.82Z"/><path class="cls-2" d="M11.38,15.15A3.27,3.27,0,0,1,7,12.08a3.23,3.23,0,0,1,1-2.31l-1-1a4.63,4.63,0,0,0,3.28,7.9,4.58,4.58,0,0,0,1.62-.29,4.67,4.67,0,0,0,1.65-1.06l-1-1A3.45,3.45,0,0,1,11.38,15.15Z"/><path class="cls-2" d="M14.47,18a7.31,7.31,0,1,0-4.24,1.36H21.08V18ZM4.28,12a6,6,0,1,1,6,5.95A6,6,0,0,1,4.28,12Z"/></g></svg>